<?xml version="1.0" encoding="UTF-8" standalone="no"?>
<!-- Created with Inkscape (http://www.inkscape.org/) -->

<svg
   width="48.698933mm"
   height="13.929203mm"
   viewBox="0 0 48.698931 13.929203"
   version="1.1"
   id="svg838"
   inkscape:version="1.1.2 (0a00cf5339, 2022-02-04)"
   sodipodi:docname="logo.light.shapes.svg"
   inkscape:export-filename="/home/henning/Projects/capybara-lockstep/media/capybara-lockstep.dark.png"
   inkscape:export-xdpi="196"
   inkscape:export-ydpi="196"
   xmlns:inkscape="http://www.inkscape.org/namespaces/inkscape"
   xmlns:sodipodi="http://sodipodi.sourceforge.net/DTD/sodipodi-0.dtd"
   xmlns:xlink="http://www.w3.org/1999/xlink"
   xmlns="http://www.w3.org/2000/svg"
   xmlns:svg="http://www.w3.org/2000/svg"
   xmlns:rdf="http://www.w3.org/1999/02/22-rdf-syntax-ns#"
   xmlns:cc="http://creativecommons.org/ns#"
   xmlns:dc="http://purl.org/dc/elements/1.1/">
  <defs
     id="defs832">
    <linearGradient
       inkscape:collect="always"
       id="linearGradient1406">
      <stop
         style="stop-color:#ff0844;stop-opacity:1"
         offset="0"
         id="stop1402" />
      <stop
         style="stop-color:#ffb199;stop-opacity:1"
         offset="1"
         id="stop1404" />
    </linearGradient>
    <linearGradient
       inkscape:collect="always"
       xlink:href="#linearGradient1406"
       id="linearGradient1408"
       x1="22.054907"
       y1="91.071762"
       x2="88.956696"
       y2="91.071762"
       gradientUnits="userSpaceOnUse"
       gradientTransform="matrix(0.72791676,0,0,0.08820435,-16.054137,57.908781)" />
  </defs>
  <sodipodi:namedview
     id="base"
     pagecolor="#ffffff"
     bordercolor="#666666"
     borderopacity="1.0"
     inkscape:pageopacity="0.0"
     inkscape:pageshadow="2"
     inkscape:zoom="1.979899"
     inkscape:cx="28.031733"
     inkscape:cy="-43.184021"
     inkscape:document-units="mm"
     inkscape:current-layer="layer1"
     showgrid="false"
     fit-margin-top="0"
     fit-margin-left="0"
     fit-margin-right="0"
     fit-margin-bottom="0"
     inkscape:window-width="1920"
     inkscape:window-height="1151"
     inkscape:window-x="1920"
     inkscape:window-y="0"
     inkscape:window-maximized="1"
     inkscape:pagecheckerboard="true"
     inkscape:snap-bbox="true"
     inkscape:snap-bbox-edge-midpoints="true"
     inkscape:bbox-nodes="true"
     inkscape:bbox-paths="true"
     showguides="true"
     inkscape:guide-bbox="true"
     inkscape:snap-others="false"
     inkscape:object-nodes="false"
     inkscape:snap-nodes="false">
    <inkscape:grid
       type="xygrid"
       id="grid822"
       originx="-0.33337498"
       originy="-0.12702217" />
    <sodipodi:guide
       position="48.698932,9.3347385"
       orientation="1,0"
       id="guide1731" />
  </sodipodi:namedview>
  <metadata
     id="metadata835">
    <rdf:RDF>
      <cc:Work
         rdf:about="">
        <dc:format>image/svg+xml</dc:format>
        <dc:type
           rdf:resource="http://purl.org/dc/dcmitype/StillImage" />
      </cc:Work>
    </rdf:RDF>
  </metadata>
  <g
     inkscape:label="Layer 1"
     inkscape:groupmode="layer"
     id="layer1"
     transform="translate(0,-52.645973)">
    <g
       aria-label="PATIENTLY"
       id="text1385"
       style="font-size:10.5833px;line-height:1.25;font-family:'League Spartan';-inkscape-font-specification:'League Spartan';letter-spacing:0px;word-spacing:0px;fill:#ffffff;stroke-width:0.264583">
      <path
         d="M 0.17462357,52.645973 H 2.7146155 q 0.6720395,0 1.2117878,0.238124 0.5397483,0.232833 0.8572473,0.714373 0.3227906,0.476249 0.3227906,1.195913 0,0.714373 -0.3227906,1.217079 -0.317499,0.497416 -0.8572473,0.761998 -0.5397483,0.259291 -1.2117878,0.259291 H 1.7568269 v 2.5982 H 0.17462357 Z m 1.58220333,3.137949 h 0.5185817 q 0.3227906,0 0.5767898,-0.09525 0.2592908,-0.09525 0.4127487,-0.301624 0.1534578,-0.211666 0.1534578,-0.555623 0,-0.349249 -0.1534578,-0.550332 Q 3.1114892,54.074719 2.8521984,53.984761 2.5981992,53.894803 2.2754086,53.894803 H 1.7568269 Z"
         style="font-weight:bold"
         id="path1747" />
      <path
         d="m 7.4876704,52.645973 h 1.57162 L 11.81624,59.630951 H 10.128204 L 9.6202053,58.228664 H 6.9320472 l -0.51329,1.402287 h -1.693328 z m -0.026458,4.196278 H 9.096332 L 8.2867096,54.550967 h -0.015875 z"
         style="font-weight:bold"
         id="path1749" />
      <path
         d="m 12.996256,54.032385 h -1.66687 v -1.386412 h 4.910651 v 1.386412 h -1.661578 v 5.598566 h -1.582203 z"
         style="font-weight:bold"
         id="path1751" />
      <path
         d="m 17.150183,52.645973 h 1.582203 v 6.984978 h -1.582203 z"
         style="font-weight:bold"
         id="path1753" />
      <path
         d="M 19.954739,52.645973 H 24.4156 v 1.386412 h -2.883949 v 1.423454 h 2.857491 v 1.344079 h -2.857491 v 1.444621 H 24.4156 v 1.386412 h -4.460861 z"
         style="font-weight:bold"
         id="path1755" />
      <path
         d="m 27.077282,54.095885 0.116416,0.02117 v 5.513899 h -1.582203 v -6.984978 h 2.158993 l 2.831033,5.503316 -0.116417,0.02117 v -5.524483 h 1.582204 v 6.984978 h -2.169577 z"
         style="font-weight:bold"
         id="path1757" />
      <path
         d="m 34.564961,54.032385 h -1.66687 v -1.386412 h 4.910651 v 1.386412 h -1.661578 v 5.598566 h -1.582203 z"
         style="font-weight:bold"
         id="path1759" />
      <path
         d="m 38.703013,52.645973 h 1.582203 v 5.598566 h 2.5347 v 1.386412 h -4.116903 z"
         style="font-weight:bold"
         id="path1761" />
      <path
         d="m 44.719612,57.117417 -2.407701,-4.471444 h 1.920869 l 1.275288,2.6617 1.280579,-2.6617 h 1.910285 l -2.397117,4.471444 v 2.513534 h -1.582203 z"
         style="font-weight:bold"
         id="path1763" />
    </g>
    <rect
       style="fill:url(#linearGradient1408);fill-opacity:1;stroke:none;stroke-width:0.0253388;stroke-miterlimit:4;stroke-dasharray:none;stroke-opacity:1"
       id="rect1387"
       width="48.698933"
       height="1.2668874"
       x="-3.5028745e-15"
       y="65.308289" />
  </g>
</svg>
